<svg id="visual" viewBox="0 0 900 600" width="900" height="600" xmlns="http://www.w3.org/2000/svg" xmlns:xlink="http://www.w3.org/1999/xlink" version="1.1"><rect x="0" y="0" width="900" height="600" fill="#001220"></rect><defs><linearGradient id="grad1_0" x1="33.3%" y1="0%" x2="100%" y2="100%"><stop offset="20%" stop-color="#001220" stop-opacity="1"></stop><stop offset="80%" stop-color="#001220" stop-opacity="1"></stop></linearGradient></defs><defs><linearGradient id="grad2_0" x1="0%" y1="0%" x2="66.7%" y2="100%"><stop offset="20%" stop-color="#001220" stop-opacity="1"></stop><stop offset="80%" stop-color="#001220" stop-opacity="1"></stop></linearGradient></defs><g transform="translate(900, 0)"><path d="M0 486.7C-30 454.3 -60 421.9 -93.7 410.4C-127.4 399 -164.8 408.6 -189.6 393.7C-214.5 378.8 -226.8 339.4 -257.5 322.9C-288.2 306.4 -337.3 312.9 -374.5 298.7C-411.7 284.4 -437 249.3 -438.5 211.2C-440.1 173.1 -418.1 132 -422.1 96.4C-426.2 60.7 -456.5 30.3 -486.7 0L0 0Z" fill="#845EC2"></path></g><g transform="translate(0, 600)"><path d="M0 -486.7C30.7 -446 61.3 -405.2 87.2 -382.2C113.1 -359.1 134.3 -353.8 174.9 -363.1C215.4 -372.4 275.3 -396.4 303.5 -380.6C331.7 -364.7 328.1 -308.9 342.4 -273.1C356.8 -237.2 389.1 -221.3 405.4 -195.2C421.7 -169.2 422 -133 432.9 -98.8C443.7 -64.6 465.2 -32.3 486.7 0L0 0Z" fill="#845EC2"></path></g></svg>