<svg id="visual" viewBox="0 0 900 600" width="900" height="600" xmlns="http://www.w3.org/2000/svg" xmlns:xlink="http://www.w3.org/1999/xlink" version="1.1"><rect x="0" y="0" width="900" height="600" fill="#001220"></rect><path d="M0 427L21.5 431.2C43 435.3 86 443.7 128.8 443.7C171.7 443.7 214.3 435.3 257.2 427.3C300 419.3 343 411.7 385.8 399.7C428.7 387.7 471.3 371.3 514.2 369.8C557 368.3 600 381.7 642.8 385.8C685.7 390 728.3 385 771.2 379.7C814 374.3 857 368.7 878.5 365.8L900 363L900 601L878.5 601C857 601 814 601 771.2 601C728.3 601 685.7 601 642.8 601C600 601 557 601 514.2 601C471.3 601 428.7 601 385.8 601C343 601 300 601 257.2 601C214.3 601 171.7 601 128.8 601C86 601 43 601 21.5 601L0 601Z" fill="#b0a8b9"></path><path d="M0 454L21.5 455.7C43 457.3 86 460.7 128.8 455.8C171.7 451 214.3 438 257.2 430.8C300 423.7 343 422.3 385.8 428C428.7 433.7 471.3 446.3 514.2 453C557 459.7 600 460.3 642.8 453.8C685.7 447.3 728.3 433.7 771.2 433.5C814 433.3 857 446.7 878.5 453.3L900 460L900 601L878.5 601C857 601 814 601 771.2 601C728.3 601 685.7 601 642.8 601C600 601 557 601 514.2 601C471.3 601 428.7 601 385.8 601C343 601 300 601 257.2 601C214.3 601 171.7 601 128.8 601C86 601 43 601 21.5 601L0 601Z" fill="#a999bb"></path><path d="M0 504L21.5 499.7C43 495.3 86 486.7 128.8 482.3C171.7 478 214.3 478 257.2 481.5C300 485 343 492 385.8 484.5C428.7 477 471.3 455 514.2 446C557 437 600 441 642.8 440.7C685.7 440.3 728.3 435.7 771.2 433.5C814 431.3 857 431.7 878.5 431.8L900 432L900 601L878.5 601C857 601 814 601 771.2 601C728.3 601 685.7 601 642.8 601C600 601 557 601 514.2 601C471.3 601 428.7 601 385.8 601C343 601 300 601 257.2 601C214.3 601 171.7 601 128.8 601C86 601 43 601 21.5 601L0 601Z" fill="#a08abd"></path><path d="M0 475L21.5 474C43 473 86 471 128.8 471.8C171.7 472.7 214.3 476.3 257.2 482.8C300 489.3 343 498.7 385.8 504.5C428.7 510.3 471.3 512.7 514.2 515C557 517.3 600 519.7 642.8 518.2C685.7 516.7 728.3 511.3 771.2 504.8C814 498.3 857 490.7 878.5 486.8L900 483L900 601L878.5 601C857 601 814 601 771.2 601C728.3 601 685.7 601 642.8 601C600 601 557 601 514.2 601C471.3 601 428.7 601 385.8 601C343 601 300 601 257.2 601C214.3 601 171.7 601 128.8 601C86 601 43 601 21.5 601L0 601Z" fill="#987cbf"></path><path d="M0 549L21.5 549.3C43 549.7 86 550.3 128.8 544.5C171.7 538.7 214.3 526.3 257.2 521.3C300 516.3 343 518.7 385.8 521.2C428.7 523.7 471.3 526.3 514.2 524C557 521.7 600 514.3 642.8 514.8C685.7 515.3 728.3 523.7 771.2 526.7C814 529.7 857 527.3 878.5 526.2L900 525L900 601L878.5 601C857 601 814 601 771.2 601C728.3 601 685.7 601 642.8 601C600 601 557 601 514.2 601C471.3 601 428.7 601 385.8 601C343 601 300 601 257.2 601C214.3 601 171.7 601 128.8 601C86 601 43 601 21.5 601L0 601Z" fill="#8e6dc1"></path><path d="M0 567L21.5 567.8C43 568.7 86 570.3 128.8 570C171.7 569.7 214.3 567.3 257.2 565.8C300 564.3 343 563.7 385.8 563.7C428.7 563.7 471.3 564.3 514.2 560.7C557 557 600 549 642.8 549C685.7 549 728.3 557 771.2 560.5C814 564 857 563 878.5 562.5L900 562L900 601L878.5 601C857 601 814 601 771.2 601C728.3 601 685.7 601 642.8 601C600 601 557 601 514.2 601C471.3 601 428.7 601 385.8 601C343 601 300 601 257.2 601C214.3 601 171.7 601 128.8 601C86 601 43 601 21.5 601L0 601Z" fill="#845ec2"></path></svg>