<svg id="visual" viewBox="0 0 900 600" width="900" height="600" xmlns="http://www.w3.org/2000/svg" xmlns:xlink="http://www.w3.org/1999/xlink" version="1.1"><rect x="0" y="0" width="900" height="600" fill="#001220"></rect><path d="M0 422L6.8 420.3C13.7 418.7 27.3 415.3 41 421.3C54.7 427.3 68.3 442.7 82 451.2C95.7 459.7 109.3 461.3 123 457.2C136.7 453 150.3 443 164 432.2C177.7 421.3 191.3 409.7 204.8 412.5C218.3 415.3 231.7 432.7 245.2 428.7C258.7 424.7 272.3 399.3 286 397.8C299.7 396.3 313.3 418.7 327 428.3C340.7 438 354.3 435 368 419C381.7 403 395.3 374 409 363.3C422.7 352.7 436.3 360.3 450 365.8C463.7 371.3 477.3 374.7 491 369.8C504.7 365 518.3 352 532 355.3C545.7 358.7 559.3 378.3 573 393.5C586.7 408.7 600.3 419.3 614 411.2C627.7 403 641.3 376 654.8 368.5C668.3 361 681.7 373 695.2 384.3C708.7 395.7 722.3 406.3 736 409.7C749.7 413 763.3 409 777 401.3C790.7 393.7 804.3 382.3 818 382.7C831.7 383 845.3 395 859 390C872.7 385 886.3 363 893.2 352L900 341L900 601L893.2 601C886.3 601 872.7 601 859 601C845.3 601 831.7 601 818 601C804.3 601 790.7 601 777 601C763.3 601 749.7 601 736 601C722.3 601 708.7 601 695.2 601C681.7 601 668.3 601 654.8 601C641.3 601 627.7 601 614 601C600.3 601 586.7 601 573 601C559.3 601 545.7 601 532 601C518.3 601 504.7 601 491 601C477.3 601 463.7 601 450 601C436.3 601 422.7 601 409 601C395.3 601 381.7 601 368 601C354.3 601 340.7 601 327 601C313.3 601 299.7 601 286 601C272.3 601 258.7 601 245.2 601C231.7 601 218.3 601 204.8 601C191.3 601 177.7 601 164 601C150.3 601 136.7 601 123 601C109.3 601 95.7 601 82 601C68.3 601 54.7 601 41 601C27.3 601 13.7 601 6.8 601L0 601Z" fill="#b0a8b9"></path><path d="M0 429L6.8 419.8C13.7 410.7 27.3 392.3 41 393.3C54.7 394.3 68.3 414.7 82 425.2C95.7 435.7 109.3 436.3 123 437.2C136.7 438 150.3 439 164 440.3C177.7 441.7 191.3 443.3 204.8 433.5C218.3 423.7 231.7 402.3 245.2 400.8C258.7 399.3 272.3 417.7 286 433.5C299.7 449.3 313.3 462.7 327 458.3C340.7 454 354.3 432 368 415.5C381.7 399 395.3 388 409 398.2C422.7 408.3 436.3 439.7 450 449.2C463.7 458.7 477.3 446.3 491 443.7C504.7 441 518.3 448 532 437.5C545.7 427 559.3 399 573 388.5C586.7 378 600.3 385 614 403.5C627.7 422 641.3 452 654.8 456.2C668.3 460.3 681.7 438.7 695.2 422.8C708.7 407 722.3 397 736 408.8C749.7 420.7 763.3 454.3 777 470.8C790.7 487.3 804.3 486.7 818 474.3C831.7 462 845.3 438 859 431C872.7 424 886.3 434 893.2 439L900 444L900 601L893.2 601C886.3 601 872.7 601 859 601C845.3 601 831.7 601 818 601C804.3 601 790.7 601 777 601C763.3 601 749.7 601 736 601C722.3 601 708.7 601 695.2 601C681.7 601 668.3 601 654.8 601C641.3 601 627.7 601 614 601C600.3 601 586.7 601 573 601C559.3 601 545.7 601 532 601C518.3 601 504.7 601 491 601C477.3 601 463.7 601 450 601C436.3 601 422.7 601 409 601C395.3 601 381.7 601 368 601C354.3 601 340.7 601 327 601C313.3 601 299.7 601 286 601C272.3 601 258.7 601 245.2 601C231.7 601 218.3 601 204.8 601C191.3 601 177.7 601 164 601C150.3 601 136.7 601 123 601C109.3 601 95.7 601 82 601C68.3 601 54.7 601 41 601C27.3 601 13.7 601 6.8 601L0 601Z" fill="#a999bb"></path><path d="M0 462L6.8 454.5C13.7 447 27.3 432 41 425.5C54.7 419 68.3 421 82 433.7C95.7 446.3 109.3 469.7 123 476.3C136.7 483 150.3 473 164 465C177.7 457 191.3 451 204.8 456.2C218.3 461.3 231.7 477.7 245.2 485.3C258.7 493 272.3 492 286 496C299.7 500 313.3 509 327 508.2C340.7 507.3 354.3 496.7 368 490.7C381.7 484.7 395.3 483.3 409 477.5C422.7 471.7 436.3 461.3 450 460.8C463.7 460.3 477.3 469.7 491 466.5C504.7 463.3 518.3 447.7 532 443.3C545.7 439 559.3 446 573 452.2C586.7 458.3 600.3 463.7 614 474.3C627.7 485 641.3 501 654.8 508.2C668.3 515.3 681.7 513.7 695.2 508.2C708.7 502.7 722.3 493.3 736 485.8C749.7 478.3 763.3 472.7 777 462.7C790.7 452.7 804.3 438.3 818 445.5C831.7 452.7 845.3 481.3 859 484.8C872.7 488.3 886.3 466.7 893.2 455.8L900 445L900 601L893.2 601C886.3 601 872.7 601 859 601C845.3 601 831.7 601 818 601C804.3 601 790.7 601 777 601C763.3 601 749.7 601 736 601C722.3 601 708.7 601 695.2 601C681.7 601 668.3 601 654.8 601C641.3 601 627.7 601 614 601C600.3 601 586.7 601 573 601C559.3 601 545.7 601 532 601C518.3 601 504.7 601 491 601C477.3 601 463.7 601 450 601C436.3 601 422.7 601 409 601C395.3 601 381.7 601 368 601C354.3 601 340.7 601 327 601C313.3 601 299.7 601 286 601C272.3 601 258.7 601 245.2 601C231.7 601 218.3 601 204.8 601C191.3 601 177.7 601 164 601C150.3 601 136.7 601 123 601C109.3 601 95.7 601 82 601C68.3 601 54.7 601 41 601C27.3 601 13.7 601 6.8 601L0 601Z" fill="#a08abd"></path><path d="M0 457L6.8 471.5C13.7 486 27.3 515 41 524.3C54.7 533.7 68.3 523.3 82 520.3C95.7 517.3 109.3 521.7 123 515.3C136.7 509 150.3 492 164 488.3C177.7 484.7 191.3 494.3 204.8 492.5C218.3 490.7 231.7 477.3 245.2 480.3C258.7 483.3 272.3 502.7 286 503.2C299.7 503.7 313.3 485.3 327 481.5C340.7 477.7 354.3 488.3 368 500.2C381.7 512 395.3 525 409 532.2C422.7 539.3 436.3 540.7 450 540.7C463.7 540.7 477.3 539.3 491 536.8C504.7 534.3 518.3 530.7 532 529.3C545.7 528 559.3 529 573 527.5C586.7 526 600.3 522 614 521.3C627.7 520.7 641.3 523.3 654.8 522.5C668.3 521.7 681.7 517.3 695.2 515.2C708.7 513 722.3 513 736 518.2C749.7 523.3 763.3 533.7 777 524.2C790.7 514.7 804.3 485.3 818 479C831.7 472.7 845.3 489.3 859 501.3C872.7 513.3 886.3 520.7 893.2 524.3L900 528L900 601L893.2 601C886.3 601 872.7 601 859 601C845.3 601 831.7 601 818 601C804.3 601 790.7 601 777 601C763.3 601 749.7 601 736 601C722.3 601 708.7 601 695.2 601C681.7 601 668.3 601 654.8 601C641.3 601 627.7 601 614 601C600.3 601 586.7 601 573 601C559.3 601 545.7 601 532 601C518.3 601 504.7 601 491 601C477.3 601 463.7 601 450 601C436.3 601 422.7 601 409 601C395.3 601 381.7 601 368 601C354.3 601 340.7 601 327 601C313.3 601 299.7 601 286 601C272.3 601 258.7 601 245.2 601C231.7 601 218.3 601 204.8 601C191.3 601 177.7 601 164 601C150.3 601 136.7 601 123 601C109.3 601 95.7 601 82 601C68.3 601 54.7 601 41 601C27.3 601 13.7 601 6.8 601L0 601Z" fill="#987cbf"></path><path d="M0 559L6.8 554.7C13.7 550.3 27.3 541.7 41 542.5C54.7 543.3 68.3 553.7 82 548C95.7 542.3 109.3 520.7 123 517C136.7 513.3 150.3 527.7 164 528.8C177.7 530 191.3 518 204.8 509C218.3 500 231.7 494 245.2 500.7C258.7 507.3 272.3 526.7 286 531.2C299.7 535.7 313.3 525.3 327 524C340.7 522.7 354.3 530.3 368 535.8C381.7 541.3 395.3 544.7 409 543.8C422.7 543 436.3 538 450 535.5C463.7 533 477.3 533 491 527.3C504.7 521.7 518.3 510.3 532 515.2C545.7 520 559.3 541 573 545C586.7 549 600.3 536 614 528.7C627.7 521.3 641.3 519.7 654.8 526C668.3 532.3 681.7 546.7 695.2 541.8C708.7 537 722.3 513 736 505.3C749.7 497.7 763.3 506.3 777 510.2C790.7 514 804.3 513 818 512.7C831.7 512.3 845.3 512.7 859 517.7C872.7 522.7 886.3 532.3 893.2 537.2L900 542L900 601L893.2 601C886.3 601 872.7 601 859 601C845.3 601 831.7 601 818 601C804.3 601 790.7 601 777 601C763.3 601 749.7 601 736 601C722.3 601 708.7 601 695.2 601C681.7 601 668.3 601 654.8 601C641.3 601 627.7 601 614 601C600.3 601 586.7 601 573 601C559.3 601 545.7 601 532 601C518.3 601 504.7 601 491 601C477.3 601 463.7 601 450 601C436.3 601 422.7 601 409 601C395.3 601 381.7 601 368 601C354.3 601 340.7 601 327 601C313.3 601 299.7 601 286 601C272.3 601 258.7 601 245.2 601C231.7 601 218.3 601 204.8 601C191.3 601 177.7 601 164 601C150.3 601 136.7 601 123 601C109.3 601 95.7 601 82 601C68.3 601 54.7 601 41 601C27.3 601 13.7 601 6.8 601L0 601Z" fill="#8e6dc1"></path><path d="M0 533L6.8 535.5C13.7 538 27.3 543 41 548.3C54.7 553.7 68.3 559.3 82 563C95.7 566.7 109.3 568.3 123 562.7C136.7 557 150.3 544 164 544.8C177.7 545.7 191.3 560.3 204.8 567.8C218.3 575.3 231.7 575.7 245.2 568.2C258.7 560.7 272.3 545.3 286 547C299.7 548.7 313.3 567.3 327 572.7C340.7 578 354.3 570 368 564C381.7 558 395.3 554 409 553C422.7 552 436.3 554 450 559C463.7 564 477.3 572 491 573C504.7 574 518.3 568 532 563.8C545.7 559.7 559.3 557.3 573 558.5C586.7 559.7 600.3 564.3 614 561.7C627.7 559 641.3 549 654.8 546.3C668.3 543.7 681.7 548.3 695.2 552.8C708.7 557.3 722.3 561.7 736 561C749.7 560.3 763.3 554.7 777 552.2C790.7 549.7 804.3 550.3 818 552C831.7 553.7 845.3 556.3 859 555.2C872.7 554 886.3 549 893.2 546.5L900 544L900 601L893.2 601C886.3 601 872.7 601 859 601C845.3 601 831.7 601 818 601C804.3 601 790.7 601 777 601C763.3 601 749.7 601 736 601C722.3 601 708.7 601 695.2 601C681.7 601 668.3 601 654.8 601C641.3 601 627.7 601 614 601C600.3 601 586.7 601 573 601C559.3 601 545.7 601 532 601C518.3 601 504.7 601 491 601C477.3 601 463.7 601 450 601C436.3 601 422.7 601 409 601C395.3 601 381.7 601 368 601C354.3 601 340.7 601 327 601C313.3 601 299.7 601 286 601C272.3 601 258.7 601 245.2 601C231.7 601 218.3 601 204.8 601C191.3 601 177.7 601 164 601C150.3 601 136.7 601 123 601C109.3 601 95.7 601 82 601C68.3 601 54.7 601 41 601C27.3 601 13.7 601 6.8 601L0 601Z" fill="#845ec2"></path></svg>