<svg id="visual" viewBox="0 0 900 600" width="900" height="600" xmlns="http://www.w3.org/2000/svg" xmlns:xlink="http://www.w3.org/1999/xlink" version="1.1"><rect x="0" y="0" width="900" height="600" fill="#001220"></rect><path d="M0 432L6.5 428.2C13 424.3 26 416.7 39 415.7C52 414.7 65 420.3 78 431C91 441.7 104 457.3 117.2 453.7C130.3 450 143.7 427 156.8 413C170 399 183 394 196 391.8C209 389.7 222 390.3 235 401.8C248 413.3 261 435.7 274 441.7C287 447.7 300 437.3 313 430.5C326 423.7 339 420.3 352 418.7C365 417 378 417 391 419.2C404 421.3 417 425.7 430.2 434C443.3 442.3 456.7 454.7 469.8 456.5C483 458.3 496 449.7 509 437.5C522 425.3 535 409.7 548 406.8C561 404 574 414 587 422C600 430 613 436 626 436.8C639 437.7 652 433.3 665 438C678 442.7 691 456.3 704 461.8C717 467.3 730 464.7 743.2 461.8C756.3 459 769.7 456 782.8 457.8C796 459.7 809 466.3 822 456.2C835 446 848 419 861 417.2C874 415.3 887 438.7 893.5 450.3L900 462L900 601L893.5 601C887 601 874 601 861 601C848 601 835 601 822 601C809 601 796 601 782.8 601C769.7 601 756.3 601 743.2 601C730 601 717 601 704 601C691 601 678 601 665 601C652 601 639 601 626 601C613 601 600 601 587 601C574 601 561 601 548 601C535 601 522 601 509 601C496 601 483 601 469.8 601C456.7 601 443.3 601 430.2 601C417 601 404 601 391 601C378 601 365 601 352 601C339 601 326 601 313 601C300 601 287 601 274 601C261 601 248 601 235 601C222 601 209 601 196 601C183 601 170 601 156.8 601C143.7 601 130.3 601 117.2 601C104 601 91 601 78 601C65 601 52 601 39 601C26 601 13 601 6.5 601L0 601Z" fill="#845ec2"></path><path d="M0 423L6.5 425.7C13 428.3 26 433.7 39 433.3C52 433 65 427 78 420.7C91 414.3 104 407.7 117.2 403.3C130.3 399 143.7 397 156.8 404.8C170 412.7 183 430.3 196 440.5C209 450.7 222 453.3 235 449.5C248 445.7 261 435.3 274 429C287 422.7 300 420.3 313 428C326 435.7 339 453.3 352 453.3C365 453.3 378 435.7 391 429C404 422.3 417 426.7 430.2 423.8C443.3 421 456.7 411 469.8 411.7C483 412.3 496 423.7 509 425.7C522 427.7 535 420.3 548 427.7C561 435 574 457 587 468.5C600 480 613 481 626 470.8C639 460.7 652 439.3 665 424.5C678 409.7 691 401.3 704 406.3C717 411.3 730 429.7 743.2 431C756.3 432.3 769.7 416.7 782.8 409C796 401.3 809 401.7 822 405.3C835 409 848 416 861 429C874 442 887 461 893.5 470.5L900 480L900 601L893.5 601C887 601 874 601 861 601C848 601 835 601 822 601C809 601 796 601 782.8 601C769.7 601 756.3 601 743.2 601C730 601 717 601 704 601C691 601 678 601 665 601C652 601 639 601 626 601C613 601 600 601 587 601C574 601 561 601 548 601C535 601 522 601 509 601C496 601 483 601 469.8 601C456.7 601 443.3 601 430.2 601C417 601 404 601 391 601C378 601 365 601 352 601C339 601 326 601 313 601C300 601 287 601 274 601C261 601 248 601 235 601C222 601 209 601 196 601C183 601 170 601 156.8 601C143.7 601 130.3 601 117.2 601C104 601 91 601 78 601C65 601 52 601 39 601C26 601 13 601 6.5 601L0 601Z" fill="#906fc0"></path><path d="M0 417L6.5 425C13 433 26 449 39 460.7C52 472.3 65 479.7 78 474.5C91 469.3 104 451.7 117.2 447.3C130.3 443 143.7 452 156.8 455C170 458 183 455 196 455.7C209 456.3 222 460.7 235 465.7C248 470.7 261 476.3 274 468.5C287 460.7 300 439.3 313 434C326 428.7 339 439.3 352 440.8C365 442.3 378 434.7 391 439.7C404 444.7 417 462.3 430.2 472.5C443.3 482.7 456.7 485.3 469.8 482C483 478.7 496 469.3 509 469.5C522 469.7 535 479.3 548 479.2C561 479 574 469 587 460C600 451 613 443 626 442.2C639 441.3 652 447.7 665 456.8C678 466 691 478 704 481.8C717 485.7 730 481.3 743.2 475.8C756.3 470.3 769.7 463.7 782.8 464.3C796 465 809 473 822 470.8C835 468.7 848 456.3 861 449.7C874 443 887 442 893.5 441.5L900 441L900 601L893.5 601C887 601 874 601 861 601C848 601 835 601 822 601C809 601 796 601 782.8 601C769.7 601 756.3 601 743.2 601C730 601 717 601 704 601C691 601 678 601 665 601C652 601 639 601 626 601C613 601 600 601 587 601C574 601 561 601 548 601C535 601 522 601 509 601C496 601 483 601 469.8 601C456.7 601 443.3 601 430.2 601C417 601 404 601 391 601C378 601 365 601 352 601C339 601 326 601 313 601C300 601 287 601 274 601C261 601 248 601 235 601C222 601 209 601 196 601C183 601 170 601 156.8 601C143.7 601 130.3 601 117.2 601C104 601 91 601 78 601C65 601 52 601 39 601C26 601 13 601 6.5 601L0 601Z" fill="#9a80be"></path><path d="M0 499L6.5 496.7C13 494.3 26 489.7 39 488.2C52 486.7 65 488.3 78 489.2C91 490 104 490 117.2 491.7C130.3 493.3 143.7 496.7 156.8 489.2C170 481.7 183 463.3 196 459.5C209 455.7 222 466.3 235 472.2C248 478 261 479 274 475.7C287 472.3 300 464.7 313 467.3C326 470 339 483 352 489.2C365 495.3 378 494.7 391 495.8C404 497 417 500 430.2 490.8C443.3 481.7 456.7 460.3 469.8 457.2C483 454 496 469 509 479.7C522 490.3 535 496.7 548 493.7C561 490.7 574 478.3 587 477.2C600 476 613 486 626 485.8C639 485.7 652 475.3 665 467C678 458.7 691 452.3 704 448.2C717 444 730 442 743.2 445C756.3 448 769.7 456 782.8 465.3C796 474.7 809 485.3 822 487C835 488.7 848 481.3 861 477.8C874 474.3 887 474.7 893.5 474.8L900 475L900 601L893.5 601C887 601 874 601 861 601C848 601 835 601 822 601C809 601 796 601 782.8 601C769.7 601 756.3 601 743.2 601C730 601 717 601 704 601C691 601 678 601 665 601C652 601 639 601 626 601C613 601 600 601 587 601C574 601 561 601 548 601C535 601 522 601 509 601C496 601 483 601 469.8 601C456.7 601 443.3 601 430.2 601C417 601 404 601 391 601C378 601 365 601 352 601C339 601 326 601 313 601C300 601 287 601 274 601C261 601 248 601 235 601C222 601 209 601 196 601C183 601 170 601 156.8 601C143.7 601 130.3 601 117.2 601C104 601 91 601 78 601C65 601 52 601 39 601C26 601 13 601 6.5 601L0 601Z" fill="#a490bc"></path><path d="M0 483L6.5 483.7C13 484.3 26 485.7 39 490.3C52 495 65 503 78 507.3C91 511.7 104 512.3 117.2 504.2C130.3 496 143.7 479 156.8 473.3C170 467.7 183 473.3 196 470.3C209 467.3 222 455.7 235 455.8C248 456 261 468 274 472C287 476 300 472 313 474.2C326 476.3 339 484.7 352 485.2C365 485.7 378 478.3 391 471.2C404 464 417 457 430.2 456.7C443.3 456.3 456.7 462.7 469.8 470.3C483 478 496 487 509 490C522 493 535 490 548 483C561 476 574 465 587 466.5C600 468 613 482 626 491.5C639 501 652 506 665 503.8C678 501.7 691 492.3 704 481.8C717 471.3 730 459.7 743.2 463.2C756.3 466.7 769.7 485.3 782.8 485.5C796 485.7 809 467.3 822 466.5C835 465.7 848 482.3 861 487.5C874 492.7 887 486.3 893.5 483.2L900 480L900 601L893.5 601C887 601 874 601 861 601C848 601 835 601 822 601C809 601 796 601 782.8 601C769.7 601 756.3 601 743.2 601C730 601 717 601 704 601C691 601 678 601 665 601C652 601 639 601 626 601C613 601 600 601 587 601C574 601 561 601 548 601C535 601 522 601 509 601C496 601 483 601 469.8 601C456.7 601 443.3 601 430.2 601C417 601 404 601 391 601C378 601 365 601 352 601C339 601 326 601 313 601C300 601 287 601 274 601C261 601 248 601 235 601C222 601 209 601 196 601C183 601 170 601 156.8 601C143.7 601 130.3 601 117.2 601C104 601 91 601 78 601C65 601 52 601 39 601C26 601 13 601 6.5 601L0 601Z" fill="#ada1ba"></path><path d="M0 487L6.5 484.8C13 482.7 26 478.3 39 479.7C52 481 65 488 78 487.7C91 487.3 104 479.7 117.2 478.5C130.3 477.3 143.7 482.7 156.8 490.2C170 497.7 183 507.3 196 507.7C209 508 222 499 235 498C248 497 261 504 274 501.2C287 498.3 300 485.7 313 481.3C326 477 339 481 352 481.5C365 482 378 479 391 478.7C404 478.3 417 480.7 430.2 481.8C443.3 483 456.7 483 469.8 481.8C483 480.7 496 478.3 509 484.7C522 491 535 506 548 505.8C561 505.7 574 490.3 587 485.7C600 481 613 487 626 488.8C639 490.7 652 488.3 665 493C678 497.7 691 509.3 704 512.5C717 515.7 730 510.3 743.2 506.5C756.3 502.7 769.7 500.3 782.8 493.8C796 487.3 809 476.7 822 474.7C835 472.7 848 479.3 861 478.7C874 478 887 470 893.5 466L900 462L900 601L893.5 601C887 601 874 601 861 601C848 601 835 601 822 601C809 601 796 601 782.8 601C769.7 601 756.3 601 743.2 601C730 601 717 601 704 601C691 601 678 601 665 601C652 601 639 601 626 601C613 601 600 601 587 601C574 601 561 601 548 601C535 601 522 601 509 601C496 601 483 601 469.8 601C456.7 601 443.3 601 430.2 601C417 601 404 601 391 601C378 601 365 601 352 601C339 601 326 601 313 601C300 601 287 601 274 601C261 601 248 601 235 601C222 601 209 601 196 601C183 601 170 601 156.8 601C143.7 601 130.3 601 117.2 601C104 601 91 601 78 601C65 601 52 601 39 601C26 601 13 601 6.5 601L0 601Z" fill="#b0a8b9"></path><path d="M0 488L6.5 489.5C13 491 26 494 39 495.7C52 497.3 65 497.7 78 499C91 500.3 104 502.7 117.2 505C130.3 507.3 143.7 509.7 156.8 513.2C170 516.7 183 521.3 196 516.3C209 511.3 222 496.7 235 495.8C248 495 261 508 274 511.5C287 515 300 509 313 507.8C326 506.7 339 510.3 352 507C365 503.7 378 493.3 391 495.5C404 497.7 417 512.3 430.2 518.3C443.3 524.3 456.7 521.7 469.8 513.8C483 506 496 493 509 492.5C522 492 535 504 548 512.2C561 520.3 574 524.7 587 526.8C600 529 613 529 626 528.8C639 528.7 652 528.3 665 521.7C678 515 691 502 704 499C717 496 730 503 743.2 509.3C756.3 515.7 769.7 521.3 782.8 521C796 520.7 809 514.3 822 506.8C835 499.3 848 490.7 861 486.7C874 482.7 887 483.3 893.5 483.7L900 484L900 601L893.5 601C887 601 874 601 861 601C848 601 835 601 822 601C809 601 796 601 782.8 601C769.7 601 756.3 601 743.2 601C730 601 717 601 704 601C691 601 678 601 665 601C652 601 639 601 626 601C613 601 600 601 587 601C574 601 561 601 548 601C535 601 522 601 509 601C496 601 483 601 469.8 601C456.7 601 443.3 601 430.2 601C417 601 404 601 391 601C378 601 365 601 352 601C339 601 326 601 313 601C300 601 287 601 274 601C261 601 248 601 235 601C222 601 209 601 196 601C183 601 170 601 156.8 601C143.7 601 130.3 601 117.2 601C104 601 91 601 78 601C65 601 52 601 39 601C26 601 13 601 6.5 601L0 601Z" fill="#b0a8b9"></path><path d="M0 506L6.5 508C13 510 26 514 39 517.5C52 521 65 524 78 524.5C91 525 104 523 117.2 523.5C130.3 524 143.7 527 156.8 526.2C170 525.3 183 520.7 196 521.5C209 522.3 222 528.7 235 531.7C248 534.7 261 534.3 274 533.8C287 533.3 300 532.7 313 532.7C326 532.7 339 533.3 352 534.3C365 535.3 378 536.7 391 536.2C404 535.7 417 533.3 430.2 530.7C443.3 528 456.7 525 469.8 522C483 519 496 516 509 519.2C522 522.3 535 531.7 548 536.8C561 542 574 543 587 538C600 533 613 522 626 516.2C639 510.3 652 509.7 665 514.2C678 518.7 691 528.3 704 526.7C717 525 730 512 743.2 510.8C756.3 509.7 769.7 520.3 782.8 523.5C796 526.7 809 522.3 822 523.8C835 525.3 848 532.7 861 534.3C874 536 887 532 893.5 530L900 528L900 601L893.5 601C887 601 874 601 861 601C848 601 835 601 822 601C809 601 796 601 782.8 601C769.7 601 756.3 601 743.2 601C730 601 717 601 704 601C691 601 678 601 665 601C652 601 639 601 626 601C613 601 600 601 587 601C574 601 561 601 548 601C535 601 522 601 509 601C496 601 483 601 469.8 601C456.7 601 443.3 601 430.2 601C417 601 404 601 391 601C378 601 365 601 352 601C339 601 326 601 313 601C300 601 287 601 274 601C261 601 248 601 235 601C222 601 209 601 196 601C183 601 170 601 156.8 601C143.7 601 130.3 601 117.2 601C104 601 91 601 78 601C65 601 52 601 39 601C26 601 13 601 6.5 601L0 601Z" fill="#ada1ba"></path><path d="M0 535L6.5 537.2C13 539.3 26 543.7 39 545.8C52 548 65 548 78 548.2C91 548.3 104 548.7 117.2 547.8C130.3 547 143.7 545 156.8 543.5C170 542 183 541 196 539.3C209 537.7 222 535.3 235 532.7C248 530 261 527 274 527.2C287 527.3 300 530.7 313 533.2C326 535.7 339 537.3 352 540C365 542.7 378 546.3 391 544.8C404 543.3 417 536.7 430.2 535.8C443.3 535 456.7 540 469.8 540.3C483 540.7 496 536.3 509 533C522 529.7 535 527.3 548 528C561 528.7 574 532.3 587 534C600 535.7 613 535.3 626 536.3C639 537.3 652 539.7 665 540.5C678 541.3 691 540.7 704 542.3C717 544 730 548 743.2 550.2C756.3 552.3 769.7 552.7 782.8 549.5C796 546.3 809 539.7 822 539C835 538.3 848 543.7 861 542.3C874 541 887 533 893.5 529L900 525L900 601L893.5 601C887 601 874 601 861 601C848 601 835 601 822 601C809 601 796 601 782.8 601C769.7 601 756.3 601 743.2 601C730 601 717 601 704 601C691 601 678 601 665 601C652 601 639 601 626 601C613 601 600 601 587 601C574 601 561 601 548 601C535 601 522 601 509 601C496 601 483 601 469.8 601C456.7 601 443.3 601 430.2 601C417 601 404 601 391 601C378 601 365 601 352 601C339 601 326 601 313 601C300 601 287 601 274 601C261 601 248 601 235 601C222 601 209 601 196 601C183 601 170 601 156.8 601C143.7 601 130.3 601 117.2 601C104 601 91 601 78 601C65 601 52 601 39 601C26 601 13 601 6.5 601L0 601Z" fill="#a490bc"></path><path d="M0 557L6.5 554.2C13 551.3 26 545.7 39 542.8C52 540 65 540 78 541.7C91 543.3 104 546.7 117.2 550.5C130.3 554.3 143.7 558.7 156.8 556.7C170 554.7 183 546.3 196 543.2C209 540 222 542 235 541.2C248 540.3 261 536.7 274 536C287 535.3 300 537.7 313 542.3C326 547 339 554 352 556C365 558 378 555 391 550.5C404 546 417 540 430.2 541.2C443.3 542.3 456.7 550.7 469.8 554.7C483 558.7 496 558.3 509 559C522 559.7 535 561.3 548 560C561 558.7 574 554.3 587 552.3C600 550.3 613 550.7 626 548.7C639 546.7 652 542.3 665 541.7C678 541 691 544 704 543.5C717 543 730 539 743.2 539.3C756.3 539.7 769.7 544.3 782.8 547.8C796 551.3 809 553.7 822 553.7C835 553.7 848 551.3 861 548.2C874 545 887 541 893.5 539L900 537L900 601L893.5 601C887 601 874 601 861 601C848 601 835 601 822 601C809 601 796 601 782.8 601C769.7 601 756.3 601 743.2 601C730 601 717 601 704 601C691 601 678 601 665 601C652 601 639 601 626 601C613 601 600 601 587 601C574 601 561 601 548 601C535 601 522 601 509 601C496 601 483 601 469.8 601C456.7 601 443.3 601 430.2 601C417 601 404 601 391 601C378 601 365 601 352 601C339 601 326 601 313 601C300 601 287 601 274 601C261 601 248 601 235 601C222 601 209 601 196 601C183 601 170 601 156.8 601C143.7 601 130.3 601 117.2 601C104 601 91 601 78 601C65 601 52 601 39 601C26 601 13 601 6.5 601L0 601Z" fill="#9a80be"></path><path d="M0 561L6.5 559.3C13 557.7 26 554.3 39 556.7C52 559 65 567 78 569.3C91 571.7 104 568.3 117.2 564.8C130.3 561.3 143.7 557.7 156.8 557.8C170 558 183 562 196 563.8C209 565.7 222 565.3 235 564C248 562.7 261 560.3 274 559.7C287 559 300 560 313 561.3C326 562.7 339 564.3 352 563.5C365 562.7 378 559.3 391 560C404 560.7 417 565.3 430.2 568.5C443.3 571.7 456.7 573.3 469.8 574C483 574.7 496 574.3 509 570.2C522 566 535 558 548 557.7C561 557.3 574 564.7 587 567.2C600 569.7 613 567.3 626 567.8C639 568.3 652 571.7 665 571.8C678 572 691 569 704 566C717 563 730 560 743.2 557.8C756.3 555.7 769.7 554.3 782.8 553.2C796 552 809 551 822 551.8C835 552.7 848 555.3 861 555.5C874 555.7 887 553.3 893.5 552.2L900 551L900 601L893.5 601C887 601 874 601 861 601C848 601 835 601 822 601C809 601 796 601 782.8 601C769.7 601 756.3 601 743.2 601C730 601 717 601 704 601C691 601 678 601 665 601C652 601 639 601 626 601C613 601 600 601 587 601C574 601 561 601 548 601C535 601 522 601 509 601C496 601 483 601 469.8 601C456.7 601 443.3 601 430.2 601C417 601 404 601 391 601C378 601 365 601 352 601C339 601 326 601 313 601C300 601 287 601 274 601C261 601 248 601 235 601C222 601 209 601 196 601C183 601 170 601 156.8 601C143.7 601 130.3 601 117.2 601C104 601 91 601 78 601C65 601 52 601 39 601C26 601 13 601 6.5 601L0 601Z" fill="#906fc0"></path><path d="M0 569L6.5 569.3C13 569.7 26 570.3 39 570.5C52 570.7 65 570.3 78 570.5C91 570.7 104 571.3 117.2 571.5C130.3 571.7 143.7 571.3 156.8 571.2C170 571 183 571 196 572.5C209 574 222 577 235 576.7C248 576.3 261 572.7 274 573C287 573.3 300 577.7 313 578.8C326 580 339 578 352 577.3C365 576.7 378 577.3 391 576.2C404 575 417 572 430.2 573C443.3 574 456.7 579 469.8 581.3C483 583.7 496 583.3 509 582.2C522 581 535 579 548 578C561 577 574 577 587 576C600 575 613 573 626 572.7C639 572.3 652 573.7 665 574C678 574.3 691 573.7 704 573.8C717 574 730 575 743.2 574.3C756.3 573.7 769.7 571.3 782.8 570.2C796 569 809 569 822 570.7C835 572.3 848 575.7 861 577.2C874 578.7 887 578.3 893.5 578.2L900 578L900 601L893.5 601C887 601 874 601 861 601C848 601 835 601 822 601C809 601 796 601 782.8 601C769.7 601 756.3 601 743.2 601C730 601 717 601 704 601C691 601 678 601 665 601C652 601 639 601 626 601C613 601 600 601 587 601C574 601 561 601 548 601C535 601 522 601 509 601C496 601 483 601 469.8 601C456.7 601 443.3 601 430.2 601C417 601 404 601 391 601C378 601 365 601 352 601C339 601 326 601 313 601C300 601 287 601 274 601C261 601 248 601 235 601C222 601 209 601 196 601C183 601 170 601 156.8 601C143.7 601 130.3 601 117.2 601C104 601 91 601 78 601C65 601 52 601 39 601C26 601 13 601 6.5 601L0 601Z" fill="#845ec2"></path></svg>